<svg width="138" height="137" viewBox="0 0 138 137" fill="none" xmlns="http://www.w3.org/2000/svg">
<rect y="6.10352e-05" width="137.383" height="136.607" rx="11.635" fill="#232323"/>
<path fill-rule="evenodd" clip-rule="evenodd" d="M33.6487 22.3457C32.6779 23.049 32.616 23.4072 32.616 28.3295V32.851L33.2082 33.584C33.534 33.9872 33.9328 34.3171 34.0946 34.3171C34.3498 34.3171 34.3819 34.5406 34.3374 36.0086L34.2865 37.7002L33.4481 37.8398C30.9276 38.2592 28.8287 40.7704 28.391 43.8908C28.2904 44.6074 28.2217 54.1326 28.2211 67.4312L28.2201 89.7676L27.151 91.2442C25.2291 93.8982 24 97.6372 24 100.829C24 106.757 27.5127 112.47 32.616 114.842C35.2898 116.086 33.9051 116.036 64.5304 115.975L92.4884 115.918L93.3179 115.471C94.4713 114.848 95.8297 113.3 96.3516 112.012C96.618 111.354 96.8365 110.354 96.9069 109.471C96.9747 108.619 97.1034 108.017 97.2174 108.02C97.3243 108.024 99.7732 108.523 102.659 109.13C108.099 110.274 108.426 110.294 109.387 109.559C109.986 109.101 110.259 108.338 110.508 106.434C110.714 104.855 110.705 104.696 110.36 103.864C109.914 102.789 109.349 102.373 107.763 101.95C104.815 101.164 104.749 101.27 108.718 100.403C110.729 99.9643 112.533 99.4589 112.85 99.2458C113.16 99.0379 113.564 98.5097 113.748 98.0722C114.051 97.3519 114.064 97.1302 113.876 95.7246C113.621 93.8033 113.237 92.8625 112.464 92.2614C111.681 91.6526 111.35 91.6688 107.431 92.508C105.605 92.8992 104.085 93.1895 104.054 93.153C104.023 93.1166 104.612 92.6143 105.364 92.0366C107.17 90.6491 107.644 90.1072 107.89 89.1464C108.134 88.1966 108.003 87.6491 107.067 85.694C106.404 84.3099 105.651 83.5875 104.87 83.5863C104.62 83.5859 104.378 83.5415 104.332 83.4878C104.286 83.434 104.347 82.5794 104.467 81.5889C104.588 80.5982 104.691 78.9286 104.697 77.8786C104.71 75.8696 104.5 75.0421 103.844 74.5057C103.509 74.2319 103.509 74.2103 103.843 72.8041C104.428 70.3407 104.19 66.4616 103.364 64.9889C102.988 64.3187 101.353 63.6535 99.758 63.5224L98.4117 63.4115L98.2932 62.4643C98.0078 60.1865 96.443 57.7337 94.5668 56.6238C93.5146 56.0013 91.7181 55.5918 90.818 55.7694L90.1588 55.8993L90.0693 53.4737C89.9736 50.8836 89.643 49.2602 89.0637 48.5341C88.473 47.7941 86.5664 47.2184 84.6637 47.2057C82.748 47.193 81.2259 47.584 79.725 48.4746L78.7151 49.0736L78.4213 48.2132C77.7088 46.1273 75.9839 43.4348 74.9666 42.8206C74.3866 42.4706 73.7029 42.4458 73.1787 42.7555C72.9676 42.8806 71.2913 44.7273 69.4538 46.8592L66.1129 50.7358L65.3216 50.1226C63.0412 48.3555 59.9836 48.4251 57.7575 50.2948C56.8351 51.0696 56.7895 51.0846 56.2158 50.8048C55.4092 50.4114 53.6097 50.2491 52.7217 50.4896L51.9908 50.6877L51.9275 46.9674C51.8664 43.3851 51.8455 43.1996 51.3607 41.9672C50.5018 39.783 48.6771 38.1635 46.7056 37.8357L45.8917 37.7004L45.8407 36.1365L45.7897 34.5727L46.3993 34.1527C47.5586 33.3541 47.6434 33.0142 47.7088 28.8976C47.7833 24.2054 47.71 23.6232 46.9291 22.7117L46.3195 22L40.2151 22.0055C34.8832 22.0103 34.0521 22.0534 33.6487 22.3457ZM45.061 28.2099L45.0125 31.3405L40.133 31.3951L35.2536 31.4497V28.2645V25.0793H40.1816H45.1096L45.061 28.2099ZM43.1662 36.062V37.6017H40.0891H37.0119V36.062V34.5224H40.0891H43.1662V36.062ZM46.4683 40.8957C47.5259 41.1605 48.5517 42.112 48.9876 43.2324C49.2315 43.8594 49.3138 44.5682 49.3166 46.0697L49.3205 48.0712H47.9375C46.2427 48.0712 45.6279 48.485 45.6279 49.6258C45.6279 50.8345 46.0833 51.1505 47.8259 51.1505H49.3205V51.7901C49.3205 52.2001 49.0954 52.7878 48.6933 53.4273C47.8394 54.7852 47.3863 56.383 47.3863 58.0357C47.3863 59.3818 47.3821 59.3933 46.5407 60.3503C46.0754 60.8793 45.4633 61.8663 45.1804 62.5438C44.7197 63.6466 44.6656 63.9851 44.6633 65.7768C44.6619 66.8775 44.6156 67.7781 44.5606 67.7783C44.5054 67.7783 44.1368 68.1019 43.7414 68.497L43.0224 69.2155H36.94H30.8576V60.183V51.1505H35.4294C39.7668 51.1505 40.0193 51.1293 40.3528 50.7399C40.8765 50.1285 40.8218 49.0299 40.2412 48.4967C39.8 48.0915 39.564 48.0712 35.2947 48.0712H30.8116L30.8933 45.967C31.0176 42.7644 31.7625 41.4403 33.7589 40.8729C34.5996 40.6339 45.501 40.6534 46.4683 40.8957ZM75.5884 48.4818C76.4887 50.4671 76.5538 51.1663 75.9267 52.1198C75.6463 52.5464 75.297 53.1173 75.1507 53.3887C74.9007 53.8518 74.7954 53.8793 73.4239 53.8368C72.123 53.7968 71.9171 53.8422 71.5436 54.2519C70.9558 54.8965 70.9759 55.9112 71.5876 56.4729C71.9256 56.7833 72.3061 56.8984 72.9943 56.8984C73.5132 56.8984 73.9377 56.9849 73.9377 57.0904C73.9377 57.6954 73.5587 58.2644 72.9983 58.5011L72.3694 58.7665L71.2633 57.458C70.5014 56.5566 69.8502 56.0024 69.1707 55.6768C68.2618 55.2416 68.1642 55.1297 67.9304 54.2552L67.6765 53.3059L70.851 49.5554L74.0256 45.805L74.5044 46.4761C74.7678 46.8454 75.2556 47.7479 75.5884 48.4818ZM72.074 49.1383C70.6717 50.6473 70.5071 51.6953 71.5473 52.4912C72.1545 52.9555 72.6213 52.7414 73.7179 51.4951C74.7592 50.3117 74.9362 49.4423 74.2893 48.687C73.7101 48.0108 72.9843 48.1586 72.074 49.1383ZM86.5979 50.5301C87.2691 50.7354 87.5244 51.8759 87.4328 54.2593C87.3494 56.4222 87.1641 57.0007 85.8066 59.3319C85.2067 60.362 85.0082 60.5556 84.4559 60.648C84.0996 60.7073 83.3479 61.0142 82.7854 61.3299C82.2227 61.6454 81.7063 61.9092 81.6377 61.9158C81.5691 61.9224 81.3121 61.6099 81.0666 61.2213L80.62 60.5147L82.2903 58.53C83.6843 56.8734 83.9604 56.4388 83.9604 55.9007C83.9604 55.0552 83.4197 54.435 82.6824 54.435C82.1874 54.435 81.8568 54.729 80.2945 56.5591L78.4813 58.6834L77.6601 58.3734C77.2086 58.203 76.7452 58.0378 76.6306 58.0059C76.3264 57.9214 76.6542 56.6548 77.3717 55.1414C78.2748 53.2368 79.94 51.5727 81.6938 50.8222C83.1125 50.2152 85.1682 50.0926 86.5979 50.5301ZM63.3874 52.3935C64.6556 53.1421 65.6733 54.9562 65.6733 56.468C65.6733 57.3663 66.1164 57.8733 67.1336 58.1392C68.295 58.4426 69.3531 59.2623 69.7846 60.1933L70.1153 60.9068L69.655 61.6986C69.4018 62.134 69.0605 62.9874 68.8966 63.5948L68.5984 64.6993H64.6654C60.4278 64.6993 60.0866 64.7715 59.3812 65.8187L59.0364 66.3305L58.0907 65.737C56.597 64.7996 55.2365 64.4176 53.3647 64.41C51.4923 64.4024 49.9681 64.8319 49.2289 65.5754C48.9185 65.8875 48.6739 66.4797 48.4619 67.4318C48.1227 68.9556 47.998 68.9659 47.4779 67.5127C46.7375 65.4438 47.6052 62.7581 49.3557 61.7015C50.0952 61.255 50.2218 60.7888 50.0933 58.988C49.9511 56.9986 50.1721 56.1204 51.1156 54.9254C52.386 53.3162 54.2207 53.0091 56.0267 54.1029C56.5147 54.3985 57.0656 54.6403 57.2509 54.6403C57.4362 54.6403 58.0504 54.1437 58.6159 53.5369C60.2254 51.8094 61.7708 51.4391 63.3874 52.3935ZM54.721 55.9541C53.0933 56.4741 51.7998 58.3011 51.736 60.1711C51.711 60.9021 51.7885 61.1343 52.1935 61.541C52.4616 61.8103 52.8304 62.0306 53.0131 62.0306C53.5309 62.0306 54.1738 61.1944 54.4062 60.2183C54.5757 59.5068 54.7361 59.2724 55.2123 59.04C55.8509 58.7285 56.1683 58.7967 56.9244 59.4085C57.5855 59.943 58.4213 59.8203 58.8651 59.1231C59.9771 57.3765 57.1166 55.189 54.721 55.9541ZM92.7228 59.0628C93.2252 59.237 93.9247 59.6751 94.2772 60.0364C95.0091 60.7865 95.7372 62.4504 95.7397 63.3785C95.7412 63.9446 95.6486 64.053 94.8183 64.4562C94.3106 64.7028 93.4712 65.2802 92.9532 65.7392C92.0005 66.5834 91.5887 66.6499 91.4216 65.987C91.3712 65.7869 91.0858 65.0421 90.7874 64.332C90.2542 63.0629 89.3777 62.0207 88.3046 61.3794L87.8133 61.0858L88.4565 60.3125C89.6182 58.916 91.0714 58.4902 92.7228 59.0628ZM61.5412 59.7503C59.4867 60.3686 58.121 62.8618 59.1674 64.0834C59.6562 64.6541 60.4888 64.6122 61.0216 63.99C61.2589 63.7129 61.4532 63.4045 61.4532 63.3046C61.4532 63.0163 62.2971 62.6448 62.638 62.7827C62.8084 62.8517 63.1914 63.2341 63.4891 63.6326C64.744 65.3122 66.4882 63.8543 65.6021 61.8663C64.9091 60.3115 62.9934 59.3132 61.5412 59.7503ZM76.9557 61.2907C77.31 61.4385 77.8354 61.7809 78.1234 62.0517C78.7048 62.5982 79.5644 64.0185 79.5644 64.4324C79.5644 64.6438 78.7062 64.6993 75.4377 64.6993C70.7916 64.6993 71.0494 64.8181 72.0305 63.1268C73.0757 61.3254 75.168 60.5453 76.9557 61.2907ZM86.8233 63.9494C87.6524 64.3546 88.667 65.76 88.8008 66.6885C89.0911 68.7048 89.2509 68.9255 90.7661 69.4038C92.1756 69.8486 93.2797 71.4644 93.2797 73.0823V73.8862L92.3152 73.9796C91.7214 74.0371 91.2149 74.2169 90.9965 74.4474C90.5291 74.9413 90.5277 76.0616 90.9938 76.6058C91.3302 76.9985 91.5799 77.0164 96.7085 77.0164H102.072V78.0994C102.072 79.4946 101.773 82.2911 101.44 84.0092L101.179 85.3567L97.6626 87.7823C95.7286 89.1165 94.1191 90.1729 94.0863 90.13C94.0532 90.0871 93.8528 89.6502 93.6405 89.1592C92.3887 86.262 89.4672 84.6458 86.865 85.4107C85.5359 85.8013 71.244 92.2031 70.9078 92.5583C70.4832 93.007 70.5051 94.1533 70.9484 94.6709C71.3924 95.1892 71.9324 95.1894 73.1005 94.6711C73.6094 94.4453 74.0776 94.2605 74.1413 94.2605C74.2047 94.2603 74.3924 95.1397 74.5582 96.2146C74.9048 98.461 75.2737 99.1871 76.0684 99.1871C76.658 99.1871 77.4547 98.3955 77.4539 97.8107C77.4535 97.6081 77.2937 96.4819 77.0985 95.3083C76.9033 94.1345 76.7767 93.1355 76.8173 93.0881C76.8578 93.0409 79.2738 91.9457 82.1862 90.6545C87.8929 88.1247 88.504 87.966 89.726 88.6977C90.5905 89.2152 91.1053 89.8863 91.3991 90.8788C91.5319 91.3274 92.2567 95.6203 93.01 100.419C94.5322 110.115 94.5332 110.143 93.4471 111.587C92.7095 112.568 91.9268 112.941 90.6101 112.941H89.4883L89.0705 110.157C88.5926 106.971 88.3255 106.372 87.3832 106.372C86.7043 106.372 86.0704 107.016 86.0704 107.706C86.0704 107.945 86.2286 109.146 86.4221 110.375C86.6155 111.604 86.7737 112.684 86.7737 112.776C86.7737 112.867 85.7595 112.941 84.5197 112.941H82.2658L81.9834 111.081C81.6683 109.006 81.3581 108.289 80.6898 108.094C80.1334 107.93 79.3564 108.543 79.2054 109.265C79.1484 109.537 79.2057 110.406 79.3329 111.196C79.46 111.987 79.5641 112.702 79.5643 112.787C79.5643 112.872 77.198 112.941 74.3057 112.941H69.0471L68.6414 110.324C68.2012 107.482 67.8755 106.783 66.9921 106.783C66.451 106.783 65.6733 107.62 65.6733 108.203C65.6733 108.43 65.8314 109.566 66.0245 110.727C66.2175 111.889 66.3758 112.862 66.3761 112.89C66.3765 112.918 62.7344 112.941 58.2826 112.941C49.3893 112.941 49.519 112.958 48.5088 111.683C47.1238 109.934 47.2811 107.048 48.8354 105.69C49.3251 105.262 54.3501 102.882 54.7642 102.882C54.843 102.882 55.0065 103.496 55.1277 104.245C55.3965 105.908 55.7711 106.421 56.6543 106.332C57.0895 106.289 57.3912 106.104 57.6237 105.739C57.9478 105.23 57.95 105.141 57.6826 103.494C57.5293 102.551 57.4644 101.716 57.5384 101.639C57.6123 101.561 59.3258 100.773 61.3462 99.8876C63.3665 99.0017 65.2061 98.1055 65.4344 97.8961C66.2731 97.1257 65.7408 95.2867 64.679 95.2867C64.4588 95.2867 63.4715 95.6521 62.4849 96.0988C60.704 96.905 60.3982 96.9528 60.3982 96.4246C60.3982 96.2733 60.045 95.3257 59.6131 94.3188C58.4682 91.6487 56.1649 88.8709 54.1787 87.7651C53.8413 87.5772 53.5219 87.2217 53.4688 86.9749C53.2 85.7241 51.8123 84.6511 49.7177 84.0743C48.822 83.8275 47.9597 83.771 46.2182 83.8447L43.9072 83.9423L43.8031 83.1827C43.6607 82.1431 43.1885 81.6864 42.3449 81.772L41.6716 81.8403L41.5571 80.7115C41.4942 80.0905 41.4347 79.0052 41.4253 78.2994L41.4078 77.0164H63.1237C84.6051 77.0164 84.8434 77.0118 85.1912 76.6058C85.6389 76.0831 85.6565 74.9417 85.2236 74.4846C85.0481 74.299 84.6663 74.0917 84.3753 74.0237L83.8461 73.9001L84.3581 72.225C84.7339 70.9953 84.8962 70.0194 84.9679 68.5551C85.0628 66.6232 85.0509 66.5374 84.5932 65.8365C84.3331 65.4387 83.9261 65.056 83.6887 64.9865C83.0611 64.8025 83.1568 64.527 84.0043 64.0779C84.8816 63.6131 86.0282 63.5607 86.8233 63.9494ZM101.15 67.0256C101.403 67.3201 101.456 67.7662 101.456 69.582C101.456 71.4572 101.395 71.9405 101.039 72.8593L100.622 73.9371H98.8623H97.1033L97.8291 73.0178C98.6744 71.9473 98.754 71.277 98.1231 70.5406C97.5643 69.888 96.9605 69.902 96.2666 70.5835C95.8116 71.0307 95.6813 71.0775 95.5526 70.8402C95.4659 70.6804 95.394 70.4483 95.3924 70.3241C95.391 70.1999 95.1444 69.7029 94.8446 69.2198C94.2442 68.2521 94.2224 68.3104 95.4777 67.5316C96.7602 66.7357 97.5186 66.5487 99.2161 66.6098C100.481 66.6556 100.913 66.7482 101.15 67.0256ZM54.9865 67.6677C56.3051 67.9939 57.3888 68.6592 58.4457 69.792C59.0001 70.3863 59.2495 70.8946 59.5997 72.1451C59.8456 73.0225 60.0465 73.7848 60.0465 73.8387C60.0465 73.8927 59.6372 73.9371 59.1368 73.9371C58.2484 73.9371 58.1969 73.9032 56.9574 72.5001C55.8724 71.2717 55.5979 71.0631 55.0667 71.0631C54.6047 71.0631 54.3517 71.2019 54.0809 71.604C53.6457 72.2496 53.6301 72.5309 53.9847 73.3315L54.2529 73.9371H52.7711H51.2892L51.0938 73.2828C50.6662 71.8508 50.6437 68.8058 51.055 68.029C51.3695 67.4347 53.3208 67.2555 54.9865 67.6677ZM82.3314 68.8563C82.2187 70.1276 81.6572 72.1626 81.1331 73.1999L80.7605 73.9371H79.4064H78.0521L77.0537 72.808C76.3209 71.9795 75.9225 71.6789 75.5571 71.6789C74.8465 71.6789 74.2893 72.3593 74.2893 73.2266C74.2893 73.8706 74.2426 73.9371 73.7891 73.9371C73.5121 73.9371 73.1467 73.7538 72.9706 73.5265C72.7731 73.2718 72.429 73.1159 72.0641 73.1159C71.7103 73.1159 71.3358 73.2796 71.1243 73.5265C70.9022 73.7858 70.5382 73.9371 70.1366 73.9371C69.5714 73.9371 69.5118 73.8878 69.6001 73.4933C69.7925 72.6343 69.0949 71.6966 68.2555 71.6855C67.8855 71.6806 67.5143 71.9663 66.7862 72.8162L65.8121 73.9535L64.4771 73.894C63.1842 73.8363 63.1318 73.8139 62.8162 73.1816C62.3203 72.1885 61.8151 70.3713 61.6551 69.0053L61.5114 67.7785H71.9692H82.4271L82.3314 68.8563ZM63.4003 69.1406C62.9844 69.7577 62.9565 70.0194 63.2309 70.7229C63.4938 71.3965 64.0906 71.6789 65.2508 71.6789C67.1479 71.6789 67.9873 70.5062 67.0672 69.1406C66.7255 68.6333 66.6114 68.5997 65.2337 68.5997C63.856 68.5997 63.7419 68.6333 63.4003 69.1406ZM76.9269 69.0102C76.4825 69.529 76.4755 70.4635 76.9114 71.0916C77.2144 71.5285 77.3874 71.5763 78.6648 71.5763C79.8896 71.5763 80.1347 71.5151 80.4681 71.1259C80.9892 70.5172 80.9822 69.4781 80.4535 68.9782C79.8525 68.41 77.422 68.4322 76.9269 69.0102ZM46.4303 71.2827C46.8248 71.7643 47.7315 72.5346 48.2073 72.7928C48.2236 72.8017 48.2915 73.0628 48.3581 73.373L48.4795 73.9371H46.1744C44.5159 73.9371 43.8696 73.8689 43.8696 73.694C43.8696 72.8809 45.2724 70.6525 45.7844 70.6525C45.8556 70.6525 46.1463 70.9362 46.4303 71.2827ZM41.3428 72.7567C41.2846 73.0108 41.2357 73.373 41.2345 73.5616C41.2329 73.7802 41.0259 73.9574 40.6632 74.0504C39.8879 74.2491 39.3293 74.7075 39.0251 75.3944C38.6233 76.3016 38.704 79.66 39.2104 83.0948L39.3045 83.7331L37.323 83.8468C35.2553 83.9653 34.0849 84.3124 32.9457 85.1452C32.2427 85.6591 31.561 86.5687 31.561 86.9932C31.561 87.1433 31.4027 87.365 31.2093 87.4859C30.8606 87.7037 30.8576 87.6419 30.8576 80.1371C30.8576 75.9743 30.9104 72.5069 30.9749 72.4317C31.0393 72.3564 33.4224 72.2948 36.2704 72.2948H41.4488L41.3428 72.7567ZM104.868 87.3949C105.071 87.7967 105.237 88.1982 105.237 88.2873C105.237 88.3766 103.296 89.9573 100.925 91.7999C97.9286 94.1277 96.5824 95.2902 96.514 95.6084C96.3496 96.3727 96.5091 96.97 96.9886 97.3864L97.4446 97.7822L104.189 96.3357C107.898 95.54 110.964 94.925 111.002 94.9689C111.09 95.0724 111.385 96.594 111.329 96.659C111.306 96.6863 108.284 97.3548 104.613 98.1447C98.389 99.4838 97.9127 99.6166 97.5437 100.114C97.3261 100.407 97.1481 100.821 97.1481 101.035C97.1481 101.248 97.3261 101.658 97.5437 101.945C97.8894 102.402 98.5687 102.637 102.92 103.804C105.659 104.539 107.916 105.14 107.936 105.14C108.092 105.14 107.785 106.836 107.614 106.912C107.341 107.034 96.5988 104.792 96.4312 104.577C96.184 104.261 94.6347 93.7859 94.7929 93.5011C94.9055 93.2987 104.257 86.6972 104.472 86.6682C104.486 86.6664 104.665 86.9934 104.868 87.3949ZM41.4729 87.4475L42.5051 87.8827L43.495 87.4578C45.3134 86.6771 48.5196 86.6972 50.3173 87.5007L50.8151 87.723L50.2521 88.0009C49.9424 88.1539 49.3282 88.3421 48.8872 88.4193C47.1058 88.7311 46.6777 90.0795 47.8698 91.6228L48.5292 92.4764L47.8403 92.3261C46.6859 92.0744 45.3809 91.422 44.1112 90.4617C43.4463 89.959 42.7235 89.5455 42.5049 89.543C42.2861 89.5408 41.6384 89.9124 41.0655 90.3689C39.8622 91.3278 38.3228 92.0974 37.1878 92.3076L36.3965 92.4542L37.1438 91.5532C38.4425 89.9875 38.0958 88.9448 36.1 88.415C34.4505 87.9769 34.1985 87.8156 34.6874 87.5101C35.9131 86.7442 39.7217 86.7091 41.4729 87.4475ZM33.3788 90.6376C33.8973 90.9133 34.0246 91.0771 33.929 91.3452C33.8604 91.5372 33.7642 92.1323 33.7155 92.6675C33.6318 93.5841 33.6666 93.6878 34.3151 94.4446C34.8534 95.073 35.1911 95.2814 35.8618 95.3988C37.1252 95.6201 39.0857 95.0634 41.0052 93.9382L42.6248 92.989L43.1152 93.3946C44.581 94.6062 47.8647 95.7032 49.1689 95.4171C50.1016 95.2124 50.9421 94.4682 51.2267 93.5947C51.4414 92.9362 51.4406 92.711 51.2197 91.928L50.9644 91.0227L51.7451 90.5799L52.5258 90.1371L53.6582 90.9983C55.1486 92.1321 56.5877 94.0176 57.3213 95.7983C58.3219 98.2274 58.6673 97.8107 53.9318 99.889C48.4847 102.28 47.7485 102.673 46.7902 103.704C45.6476 104.934 45.0586 106.447 44.9638 108.396C44.891 109.89 45.0605 110.843 45.7078 112.582C45.8331 112.919 45.5551 112.941 41.2069 112.938C35.8342 112.934 34.8743 112.77 32.616 111.477C30.6871 110.372 28.5784 107.984 27.7349 105.951C25.8797 101.477 26.4705 96.7555 29.3442 93.0918C30.3169 91.8515 32.3598 90.0478 32.6049 90.2125C32.6594 90.249 33.0076 90.4403 33.3788 90.6376Z" fill="white"/>
</svg>
