<svg width="138" height="137" viewBox="0 0 138 137" fill="none" xmlns="http://www.w3.org/2000/svg">
<rect y="0.132812" width="137.383" height="136.607" rx="11.635" fill="#232323"/>
<path fill-rule="evenodd" clip-rule="evenodd" d="M70.0475 26.5182C64.3516 27.3166 59.5969 31.4761 57.7226 37.2997C57.2165 38.8716 57.1383 39.382 57.0648 41.5884C56.9996 43.5457 57.0483 44.4079 57.2879 45.5357C57.6869 47.4135 57.846 47.8209 60.6539 54.1497L63.0297 59.5048L62.392 60.5458C61.4054 62.1563 60.366 64.5226 60.366 65.1586C60.366 65.9455 61.0221 66.568 61.8515 66.568C62.6907 66.568 62.9195 66.3385 63.6219 64.7929C66.0407 59.4708 70.4046 55.5607 75.6979 53.9726C85.8671 50.9216 96.5561 57.3305 99.3627 68.1618C99.7717 69.74 99.8211 70.2695 99.828 73.1407C99.8348 76.0953 99.7967 76.4993 99.3529 78.1656C98.0621 83.0123 95.2926 87.0373 91.3707 89.766L90.4616 90.3985H85.3611H80.2605L79.8962 90.8823C79.4318 91.4986 79.4318 92.2359 79.8962 92.8522L80.2605 93.336H85.9287H91.597L92.6096 92.6993C96.6686 90.1472 100.084 85.7359 101.75 80.8946C103.4 76.0973 103.4 70.1832 101.749 65.3868C101.221 63.851 100.179 61.6554 99.4347 60.5076L98.9212 59.7165L101.553 53.8064C104.649 46.8541 105.027 45.6071 105.027 42.3575C105.027 41.2049 104.908 39.6609 104.763 38.9262C103.613 33.1112 99.3733 28.4859 93.6862 26.8413C92.3136 26.4444 92.0242 26.4335 81.7296 26.397C75.9272 26.3762 70.6701 26.4308 70.0475 26.5182ZM92.9829 29.8871C97.478 31.2817 100.816 34.9271 101.792 39.507C102.242 41.6173 102.069 44.5263 101.381 46.4278C100.937 47.6535 97.5401 55.4446 96.931 56.633C96.7599 56.9668 96.6576 56.9092 95.5257 55.8412C94.8544 55.2078 94.3042 54.6343 94.3034 54.5665C94.3023 54.4989 95.1716 52.4858 96.235 50.0931C97.2983 47.7005 98.2874 45.3242 98.4329 44.8127C98.8293 43.4192 98.7813 40.7092 98.3357 39.3286C97.436 36.5396 95.2713 34.3154 92.5433 33.3767C91.8422 33.1354 91.0134 33.0412 89.5299 33.0346C87.0932 33.0236 86.7408 33.2078 86.7408 34.4907C86.7408 35.7448 87.1558 35.9966 89.3836 36.0937C91.6873 36.1943 92.9116 36.7074 94.1611 38.0961C95.335 39.4007 95.7645 40.6782 95.6661 42.5723C95.5924 43.9913 95.5224 44.1918 93.6069 48.485L91.6238 52.9289L90.4572 52.3167C89.0256 51.5655 86.3964 50.6809 84.6308 50.3562C82.7632 50.0126 78.7384 50.0556 76.8573 50.4391C75.019 50.8139 72.9639 51.5102 71.5458 52.2389C70.9736 52.533 70.4426 52.7082 70.3659 52.6281C70.2895 52.5483 69.3816 50.5834 68.3488 48.2619C66.5485 44.2159 66.4674 43.9803 66.3906 42.5723C66.3252 41.3758 66.3802 40.9099 66.6875 40.0593C67.1866 38.6778 68.4146 37.3256 69.773 36.6619L70.828 36.1465L77.5976 36.0977C82.2281 36.0643 84.4907 35.9828 84.7581 35.8398C85.3203 35.5392 85.5981 34.5526 85.3022 33.9082C84.8526 32.9291 84.7719 32.9199 77.2459 32.9847C70.5947 33.0418 70.2564 33.0614 69.2598 33.4488C66.6054 34.4802 64.5878 36.6288 63.7054 39.364C63.2539 40.7634 63.2096 43.3912 63.6138 44.8001C63.7626 45.3185 64.7604 47.7142 65.8312 50.1237L67.7782 54.5046L67.1051 55.109C66.735 55.4415 66.1467 55.9559 65.7975 56.2523L65.1627 56.7909L63.0309 51.9679C61.8585 49.3152 60.7304 46.6531 60.5239 46.052C59.9941 44.5092 59.8682 41.3479 60.2628 39.4964C61.3415 34.434 65.2992 30.5315 70.2545 29.6446C70.7633 29.5535 75.848 29.4971 81.5538 29.5194C90.9246 29.5559 92.0298 29.5913 92.9829 29.8871ZM31.5296 52.8787C28.1128 53.3998 25.3106 55.0328 22.1224 58.3614C19.38 61.2243 17.5578 64.3667 16.2232 68.5341C15.2519 71.5678 14.939 73.8659 15.048 77.1669C15.1514 80.3038 15.5231 82.0099 16.5957 84.2722C17.3698 85.9047 18.802 87.6929 20.0585 88.5956C21.0498 89.3078 29.4031 93.3812 31.121 93.9901C34.0839 95.0405 39.7394 94.1078 40.3356 92.4703C40.7149 91.4286 40.0782 90.3985 39.055 90.3985C38.7885 90.3985 37.9566 90.6135 37.2067 90.8764C34.0586 91.9798 30.722 91.1101 28.8239 88.6914C27.4823 86.9818 26.4305 83.7355 26.4305 81.3042C26.4305 80.4088 26.3626 80.2017 25.9165 79.7359C25.2607 79.0511 24.4778 79.0182 23.873 79.65C23.4974 80.042 23.4413 80.2665 23.4413 81.378C23.4413 82.8656 23.7863 84.9083 24.2904 86.4061C24.4858 86.9862 24.6099 87.461 24.5665 87.461C24.523 87.461 23.9191 87.1621 23.2243 86.7967C21.6663 85.9776 19.9732 84.3181 19.2567 82.9077C18.2318 80.8904 18.0772 80.01 18.0904 76.2618C18.1013 73.1741 18.1449 72.7037 18.5702 71.0876C19.6637 66.9336 21.7669 63.1484 24.5209 60.3774C28.9078 55.9637 32.5666 54.9361 36.8037 56.9279L37.9311 57.4579L36.0814 58.4014C32.2289 60.3662 29.1713 63.3177 26.994 67.1739C25.4746 69.8646 23.6428 75.2975 23.8974 76.3571C24.1144 77.2596 25.0818 77.68 26.01 77.275C26.5062 77.0586 26.63 76.8691 26.8744 75.9535C28.2043 70.9693 29.8437 67.8108 32.7474 64.637C34.9952 62.1803 37.6732 60.5895 40.3933 60.0949C44.5545 59.3383 48.4965 62.7691 49.2765 67.8262C49.3734 68.4537 49.5821 69.1167 49.7405 69.2994C50.1687 69.7934 50.9333 69.9067 51.5591 69.5689C52.2055 69.2199 52.3602 68.6867 52.2192 67.294C51.8844 63.9845 49.7829 60.4542 47.0332 58.5815C45.8831 57.7983 38.4649 54.1351 36.701 53.4793C35.1368 52.8976 33.0189 52.6518 31.5296 52.8787ZM79.0484 62.5C76.088 63.054 73.2063 65.2733 71.869 68.0291C71.3218 69.1565 71.3154 70.0135 71.8503 70.5384C72.2488 70.9291 73.0469 71.0586 73.6266 70.8263C73.7794 70.765 74.1518 70.2302 74.4542 69.6379C75.9071 66.7916 79.1864 65.0247 82.0014 65.5713C85.206 66.1937 87.6147 68.7019 88.1681 71.9932C88.5535 74.2865 87.7833 76.673 86.0874 78.4397C84.858 79.7207 83.5205 80.4158 81.7936 80.6715C80.2354 80.9023 79.7075 81.3194 79.7075 82.3204C79.7075 83.7427 81.1386 84.1714 83.6384 83.4981C88.7812 82.1127 92.1053 76.5581 91.0586 71.0988C90.3011 67.1489 87.7744 64.1417 84.1471 62.8727C82.8706 62.4262 80.4054 62.2461 79.0484 62.5ZM58.1361 68.0179C54.9782 68.4018 51.5227 70.322 48.7655 73.2255C48.0427 73.9867 47.3793 74.6094 47.2913 74.6094C47.2034 74.6094 45.4565 73.6593 43.4095 72.4981C39.2214 70.1224 38.9363 70.0453 37.3647 70.8632C34.4389 72.3856 33.1717 77.5545 35.2493 79.4919C35.4761 79.7034 37.2192 80.7618 39.1227 81.8439L42.5838 83.8115L42.3484 84.5083C41.7117 86.3927 41.4704 88.2914 41.472 91.4083C41.4739 95.0978 41.802 96.8081 42.9993 99.3698C43.9693 101.446 45.8198 103.459 47.6182 104.396C50.4437 105.869 57.0141 108.935 57.9923 109.238C59.3311 109.652 61.9441 109.654 63.5871 109.242C67.7102 108.207 72.1253 104.522 75.0304 99.6911C76.2546 97.6552 77.487 94.5984 78.1748 91.8922C78.6923 89.8563 78.718 89.5876 78.7208 86.1758C78.7234 83.0373 78.6759 82.4158 78.335 81.1369C77.6595 78.6031 76.6864 76.769 75.1646 75.1611C73.6482 73.5587 73.5766 73.5167 67.1356 70.4334C62.0239 67.9867 60.8918 67.6828 58.1361 68.0179ZM61.7171 71.3831C62.0862 71.5229 62.8233 71.8438 63.3552 72.0962C64.164 72.4799 64.2648 72.5771 63.9706 72.6896C59.1718 74.5257 54.815 78.9507 52.295 84.5479C49.7502 90.2002 49.1059 96.4967 50.5873 101.241C50.8062 101.942 50.9574 102.516 50.9231 102.516C50.889 102.516 50.2896 102.232 49.5914 101.886C47.2655 100.731 45.9538 99.1273 45.008 96.2816C44.5689 94.9601 44.4736 94.3469 44.4033 92.3899C44.2976 89.4495 44.5506 87.5974 45.4398 84.8007C46.6812 80.8964 48.5779 77.7202 51.2377 75.0916C54.6851 71.6844 58.7322 70.2522 61.7171 71.3831ZM42.1006 75.3633C43.8781 76.3837 45.3612 77.2468 45.3964 77.2813C45.4316 77.3158 45.3006 77.6169 45.105 77.9503C44.9097 78.2839 44.5039 79.0649 44.2034 79.686L43.6571 80.8155L40.5545 79.0434C38.8482 78.0689 37.3728 77.1381 37.2761 76.975C37.0141 76.5339 37.6007 74.823 38.2601 74.1045C38.5613 73.7763 38.8215 73.5079 38.8382 73.5079C38.8551 73.5079 40.3231 74.3429 42.1006 75.3633ZM71.0039 75.8C74.0611 77.3244 75.8514 81.0481 75.8602 85.9004C75.8749 94.0641 71.0547 102.465 64.5294 105.648C62.387 106.692 59.5947 106.718 57.599 105.71C56.4131 105.111 54.7869 103.409 54.0872 102.034C53.1249 100.143 52.9122 98.945 52.9181 95.4473C52.9227 92.6734 52.9744 92.1267 53.3825 90.5325C54.6554 85.561 57.2403 81.2161 60.6368 78.339C63.4252 75.977 65.5049 75.1281 68.2785 75.2191C69.6883 75.2654 70.1134 75.3561 71.0039 75.8Z" fill="white"/>
<path fill-rule="evenodd" clip-rule="evenodd" d="M70.0475 26.5182C64.3516 27.3166 59.5969 31.4761 57.7226 37.2997C57.2165 38.8716 57.1383 39.382 57.0648 41.5884C56.9996 43.5457 57.0483 44.4079 57.2879 45.5357C57.6869 47.4135 57.846 47.8209 60.6539 54.1497L63.0297 59.5048L62.392 60.5458C61.4054 62.1563 60.366 64.5226 60.366 65.1586C60.366 65.9455 61.0221 66.568 61.8515 66.568C62.6907 66.568 62.9195 66.3385 63.6219 64.7929C66.0407 59.4708 70.4046 55.5607 75.6979 53.9726C85.8671 50.9216 96.5561 57.3305 99.3627 68.1618C99.7717 69.74 99.8211 70.2695 99.828 73.1407C99.8348 76.0953 99.7967 76.4993 99.3529 78.1656C98.0621 83.0123 95.2926 87.0373 91.3707 89.766L90.4616 90.3985H85.3611H80.2605L79.8962 90.8823C79.4318 91.4986 79.4318 92.2359 79.8962 92.8522L80.2605 93.336H85.9287H91.597L92.6096 92.6993C96.6686 90.1472 100.084 85.7359 101.75 80.8946C103.4 76.0973 103.4 70.1832 101.749 65.3868C101.221 63.851 100.179 61.6554 99.4347 60.5076L98.9212 59.7165L101.553 53.8064C104.649 46.8541 105.027 45.6071 105.027 42.3575C105.027 41.2049 104.908 39.6609 104.763 38.9262C103.613 33.1112 99.3733 28.4859 93.6862 26.8413C92.3136 26.4444 92.0242 26.4335 81.7296 26.397C75.9272 26.3762 70.6701 26.4308 70.0475 26.5182ZM92.9829 29.8871C97.478 31.2817 100.816 34.9271 101.792 39.507C102.242 41.6173 102.069 44.5263 101.381 46.4278C100.937 47.6535 97.5401 55.4446 96.931 56.633C96.7599 56.9668 96.6576 56.9092 95.5257 55.8412C94.8544 55.2078 94.3042 54.6343 94.3034 54.5665C94.3023 54.4989 95.1716 52.4858 96.235 50.0931C97.2983 47.7005 98.2874 45.3242 98.4329 44.8127C98.8293 43.4192 98.7813 40.7092 98.3357 39.3286C97.436 36.5396 95.2713 34.3154 92.5433 33.3767C91.8422 33.1354 91.0134 33.0412 89.5299 33.0346C87.0932 33.0236 86.7408 33.2078 86.7408 34.4907C86.7408 35.7448 87.1558 35.9966 89.3836 36.0937C91.6873 36.1943 92.9116 36.7074 94.1611 38.0961C95.335 39.4007 95.7645 40.6782 95.6661 42.5723C95.5924 43.9913 95.5224 44.1918 93.6069 48.485L91.6238 52.9289L90.4572 52.3167C89.0256 51.5655 86.3964 50.6809 84.6308 50.3562C82.7632 50.0126 78.7384 50.0556 76.8573 50.4391C75.019 50.8139 72.9639 51.5102 71.5458 52.2389C70.9736 52.533 70.4426 52.7082 70.3659 52.6281C70.2895 52.5483 69.3816 50.5834 68.3488 48.2619C66.5485 44.2159 66.4674 43.9803 66.3906 42.5723C66.3252 41.3758 66.3802 40.9099 66.6875 40.0593C67.1866 38.6778 68.4146 37.3256 69.773 36.6619L70.828 36.1465L77.5976 36.0977C82.2281 36.0643 84.4907 35.9828 84.7581 35.8398C85.3203 35.5392 85.5981 34.5526 85.3022 33.9082C84.8526 32.9291 84.7719 32.9199 77.2459 32.9847C70.5947 33.0418 70.2564 33.0614 69.2598 33.4488C66.6054 34.4802 64.5878 36.6288 63.7054 39.364C63.2539 40.7634 63.2096 43.3912 63.6138 44.8001C63.7626 45.3185 64.7604 47.7142 65.8312 50.1237L67.7782 54.5046L67.1051 55.109C66.735 55.4415 66.1467 55.9559 65.7975 56.2523L65.1627 56.7909L63.0309 51.9679C61.8585 49.3152 60.7304 46.6531 60.5239 46.052C59.9941 44.5092 59.8682 41.3479 60.2628 39.4964C61.3415 34.434 65.2992 30.5315 70.2545 29.6446C70.7633 29.5535 75.848 29.4971 81.5538 29.5194C90.9246 29.5559 92.0298 29.5913 92.9829 29.8871ZM31.5296 52.8787C28.1128 53.3998 25.3106 55.0328 22.1224 58.3614C19.38 61.2243 17.5578 64.3667 16.2232 68.5341C15.2519 71.5678 14.939 73.8659 15.048 77.1669C15.1514 80.3038 15.5231 82.0099 16.5957 84.2722C17.3698 85.9047 18.802 87.6929 20.0585 88.5956C21.0498 89.3078 29.4031 93.3812 31.121 93.9901C34.0839 95.0405 39.7394 94.1078 40.3356 92.4703C40.7149 91.4286 40.0782 90.3985 39.055 90.3985C38.7885 90.3985 37.9566 90.6135 37.2067 90.8764C34.0586 91.9798 30.722 91.1101 28.8239 88.6914C27.4823 86.9818 26.4305 83.7355 26.4305 81.3042C26.4305 80.4088 26.3626 80.2017 25.9165 79.7359C25.2607 79.0511 24.4778 79.0182 23.873 79.65C23.4974 80.042 23.4413 80.2665 23.4413 81.378C23.4413 82.8656 23.7863 84.9083 24.2904 86.4061C24.4858 86.9862 24.6099 87.461 24.5665 87.461C24.523 87.461 23.9191 87.1621 23.2243 86.7967C21.6663 85.9776 19.9732 84.3181 19.2567 82.9077C18.2318 80.8904 18.0772 80.01 18.0904 76.2618C18.1013 73.1741 18.1449 72.7037 18.5702 71.0876C19.6637 66.9336 21.7669 63.1484 24.5209 60.3774C28.9078 55.9637 32.5666 54.9361 36.8037 56.9279L37.9311 57.4579L36.0814 58.4014C32.2289 60.3662 29.1713 63.3177 26.994 67.1739C25.4746 69.8646 23.6428 75.2975 23.8974 76.3571C24.1144 77.2596 25.0818 77.68 26.01 77.275C26.5062 77.0586 26.63 76.8691 26.8744 75.9535C28.2043 70.9693 29.8437 67.8108 32.7474 64.637C34.9952 62.1803 37.6732 60.5895 40.3933 60.0949C44.5545 59.3383 48.4965 62.7691 49.2765 67.8262C49.3734 68.4537 49.5821 69.1167 49.7405 69.2994C50.1687 69.7934 50.9333 69.9067 51.5591 69.5689C52.2055 69.2199 52.3602 68.6867 52.2192 67.294C51.8844 63.9845 49.7829 60.4542 47.0332 58.5815C45.8831 57.7983 38.4649 54.1351 36.701 53.4793C35.1368 52.8976 33.0189 52.6518 31.5296 52.8787ZM79.0484 62.5C76.088 63.054 73.2063 65.2733 71.869 68.0291C71.3218 69.1565 71.3154 70.0135 71.8503 70.5384C72.2488 70.9291 73.0469 71.0586 73.6266 70.8263C73.7794 70.765 74.1518 70.2302 74.4542 69.6379C75.9071 66.7916 79.1864 65.0247 82.0014 65.5713C85.206 66.1937 87.6147 68.7019 88.1681 71.9932C88.5535 74.2865 87.7833 76.673 86.0874 78.4397C84.858 79.7207 83.5205 80.4158 81.7936 80.6715C80.2354 80.9023 79.7075 81.3194 79.7075 82.3204C79.7075 83.7427 81.1386 84.1714 83.6384 83.4981C88.7812 82.1127 92.1053 76.5581 91.0586 71.0988C90.3011 67.1489 87.7744 64.1417 84.1471 62.8727C82.8706 62.4262 80.4054 62.2461 79.0484 62.5ZM58.1361 68.0179C54.9782 68.4018 51.5227 70.322 48.7655 73.2255C48.0427 73.9867 47.3793 74.6094 47.2913 74.6094C47.2034 74.6094 45.4565 73.6593 43.4095 72.4981C39.2214 70.1224 38.9363 70.0453 37.3647 70.8632C34.4389 72.3856 33.1717 77.5545 35.2493 79.4919C35.4761 79.7034 37.2192 80.7618 39.1227 81.8439L42.5838 83.8115L42.3484 84.5083C41.7117 86.3927 41.4704 88.2914 41.472 91.4083C41.4739 95.0978 41.802 96.8081 42.9993 99.3698C43.9693 101.446 45.8198 103.459 47.6182 104.396C50.4437 105.869 57.0141 108.935 57.9923 109.238C59.3311 109.652 61.9441 109.654 63.5871 109.242C67.7102 108.207 72.1253 104.522 75.0304 99.6911C76.2546 97.6552 77.487 94.5984 78.1748 91.8922C78.6923 89.8563 78.718 89.5876 78.7208 86.1758C78.7234 83.0373 78.6759 82.4158 78.335 81.1369C77.6595 78.6031 76.6864 76.769 75.1646 75.1611C73.6482 73.5587 73.5766 73.5167 67.1356 70.4334C62.0239 67.9867 60.8918 67.6828 58.1361 68.0179ZM61.7171 71.3831C62.0862 71.5229 62.8233 71.8438 63.3552 72.0962C64.164 72.4799 64.2648 72.5771 63.9706 72.6896C59.1718 74.5257 54.815 78.9507 52.295 84.5479C49.7502 90.2002 49.1059 96.4967 50.5873 101.241C50.8062 101.942 50.9574 102.516 50.9231 102.516C50.889 102.516 50.2896 102.232 49.5914 101.886C47.2655 100.731 45.9538 99.1273 45.008 96.2816C44.5689 94.9601 44.4736 94.3469 44.4033 92.3899C44.2976 89.4495 44.5506 87.5974 45.4398 84.8007C46.6812 80.8964 48.5779 77.7202 51.2377 75.0916C54.6851 71.6844 58.7322 70.2522 61.7171 71.3831ZM42.1006 75.3633C43.8781 76.3837 45.3612 77.2468 45.3964 77.2813C45.4316 77.3158 45.3006 77.6169 45.105 77.9503C44.9097 78.2839 44.5039 79.0649 44.2034 79.686L43.6571 80.8155L40.5545 79.0434C38.8482 78.0689 37.3728 77.1381 37.2761 76.975C37.0141 76.5339 37.6007 74.823 38.2601 74.1045C38.5613 73.7763 38.8215 73.5079 38.8382 73.5079C38.8551 73.5079 40.3231 74.3429 42.1006 75.3633ZM71.0039 75.8C74.0611 77.3244 75.8514 81.0481 75.8602 85.9004C75.8749 94.0641 71.0547 102.465 64.5294 105.648C62.387 106.692 59.5947 106.718 57.599 105.71C56.4131 105.111 54.7869 103.409 54.0872 102.034C53.1249 100.143 52.9122 98.945 52.9181 95.4473C52.9227 92.6734 52.9744 92.1267 53.3825 90.5325C54.6554 85.561 57.2403 81.2161 60.6368 78.339C63.4252 75.977 65.5049 75.1281 68.2785 75.2191C69.6883 75.2654 70.1134 75.3561 71.0039 75.8Z" fill="white"/>
</svg>
