<svg width="138" height="137" viewBox="0 0 138 137" fill="none" xmlns="http://www.w3.org/2000/svg">
<rect x="0.347656" y="0.13269" width="137.383" height="136.607" rx="11.635" fill="#7021F9"/>
<path fill-rule="evenodd" clip-rule="evenodd" d="M50.8535 25.3475C50.4496 25.535 49.8548 25.9668 49.5318 26.3074C48.4538 27.4436 48.375 27.8584 48.375 32.401C48.375 36.394 48.3875 36.5341 48.8187 37.3448L49.2623 38.1793L48.8081 39.0704C48.4249 39.8223 48.3629 40.1698 48.4104 41.293L48.4668 42.6246L47.1299 42.6241C45.5866 42.6237 44.704 42.9309 43.8087 43.7805C42.5073 45.015 42.5084 45.0066 42.504 53.0427L42.5 60.2487H40.5007C31.9371 60.2487 23.9444 65.7396 20.5413 73.9604C20.1959 74.7949 19.7078 75.7806 19.4566 76.1505L19 76.8234V82.28V87.7366L19.4566 88.4094C19.7078 88.7794 20.1959 89.7651 20.5413 90.5995C22.6058 95.5869 26.1743 99.4695 30.9336 101.907C34.1659 103.563 37.1749 104.311 40.5963 104.311H42.5V108.54C42.5 113.213 42.5742 113.612 43.6568 114.753C43.9798 115.093 44.5746 115.525 44.9785 115.712C45.6844 116.04 46.8938 116.053 76.2412 116.057C109.952 116.062 107.44 116.151 108.754 114.904C109.094 114.581 109.526 113.987 109.714 113.583C110.042 112.876 110.054 111.595 110.054 79.3425C110.054 47.0898 110.042 45.8091 109.714 45.1022C109.293 44.1947 108.355 43.2848 107.452 42.9085C107.055 42.7429 106.229 42.6237 105.479 42.6237H104.188L104.187 34.7751C104.186 27.2672 104.17 26.9006 103.821 26.3281C103.621 25.9989 103.187 25.5657 102.858 25.365C102.289 25.018 101.922 25 95.375 25C88.8282 25 88.4609 25.018 87.8919 25.365C87.5627 25.5657 87.1294 25.9989 86.9288 26.3281C86.5798 26.9006 86.5638 27.2672 86.5632 34.7751L86.5625 42.6237L85.0479 42.6241L83.5332 42.6246L83.5896 41.293C83.6369 40.1766 83.5741 39.8208 83.2014 39.0895L82.757 38.2175L83.191 37.3603C83.6088 36.535 83.625 36.3494 83.625 32.3972C83.625 27.8587 83.5461 27.4434 82.4682 26.3074C82.1452 25.9668 81.5504 25.535 81.1465 25.3475C80.4508 25.0248 79.653 25.0068 66 25.0068C52.347 25.0068 51.5492 25.0248 50.8535 25.3475ZM79.6588 28.1918C80.5307 28.5562 80.6875 29.1889 80.6875 32.3425C80.6875 35.4961 80.5307 36.1287 79.6588 36.4932C78.7519 36.8719 53.2481 36.8719 52.3412 36.4932C51.4693 36.1287 51.3125 35.4961 51.3125 32.3425C51.3125 29.2359 51.4739 28.5595 52.301 28.1995C53.1589 27.8262 78.7664 27.8189 79.6588 28.1918ZM101.25 35.28V42.6237H100.197H99.1429L96.3409 39.8259L93.5387 37.0281L92.3942 38.1727L91.2498 39.317L92.8956 40.9705L94.5411 42.6237H92.0206H89.5V35.28V27.9362H95.375H101.25V35.28ZM92.3431 30.8763L91.2506 31.9804L94.9645 35.6945L98.6784 39.4084L99.8248 38.2621L100.971 37.1157L97.3027 33.444C95.285 31.4245 93.5896 29.7722 93.535 29.7722C93.4805 29.7722 92.944 30.269 92.3431 30.8763ZM58.6562 32.3425V33.8112H68.2031H77.75V32.3425V30.8737H68.2031H58.6562V32.3425ZM79.6772 39.9495C80.7947 40.4164 80.7947 41.8936 79.6772 42.3604C78.7381 42.7528 53.2619 42.7528 52.3228 42.3604C51.2297 41.9037 51.2049 40.4259 52.2828 39.9572C53.1725 39.5704 78.7524 39.5632 79.6772 39.9495ZM106.096 45.8168C107.009 46.1983 107.125 46.7621 107.125 50.821V54.3737H76.2812H45.4375V50.821C45.4375 46.8133 45.5585 46.2021 46.426 45.8245C47.2909 45.4481 105.196 45.4406 106.096 45.8168ZM51.3125 49.9675V51.4362H52.7812H54.25V49.9675V48.4987H52.7812H51.3125V49.9675ZM57.1875 49.9675V51.4362H58.6562H60.125V49.9675V48.4987H58.6562H57.1875V49.9675ZM63.0625 49.9675V51.4362H64.5312H66V49.9675V48.4987H64.5312H63.0625V49.9675ZM74.8125 49.9675V51.4362H79.2188H83.625V49.9675V48.4987H79.2188H74.8125V49.9675ZM86.5625 49.9675V51.4362H92.4375H98.3125V49.9675V48.4987H92.4375H86.5625V49.9675ZM107.125 84.364C107.125 104.075 107.068 111.579 106.917 112.014C106.506 113.192 108.388 113.124 76.3145 113.124C55.0235 113.124 46.9832 113.067 46.5468 112.915C45.5581 112.571 45.4375 112.007 45.4375 107.732V103.981L46.4014 103.756C50.6707 102.762 55.1338 99.9169 58.1516 96.2649L58.6562 95.6542L59.145 96.2649C60.0589 97.407 62.3098 99.4849 63.5084 100.293C64.9041 101.234 64.8356 100.865 64.4595 105.413C64.33 106.978 64.2406 108.282 64.261 108.31C64.2812 108.338 65.3211 107.862 66.5717 107.252C69.8367 105.66 71.4314 105.459 73.7956 106.344C74.7025 106.683 74.7749 106.756 74.8841 107.439C75.0222 108.303 76.0729 109.566 76.9638 109.939C77.7803 110.281 79.4761 110.252 80.1918 109.884C80.5149 109.718 81.2498 109.264 81.8249 108.874C82.3999 108.485 82.9228 108.167 82.9865 108.167C83.0504 108.167 83.3641 108.428 83.6839 108.748C84.0038 109.068 84.708 109.532 85.2491 109.78C86.1109 110.174 86.4184 110.219 87.7287 110.142C90.4082 109.984 92.4573 108.879 93.3935 107.087C94.1275 105.682 94.0865 104.406 93.1831 100.529L92.4599 97.4265L93.1401 96.6003C95.6183 93.591 97.2098 90.3206 97.9343 86.7492C98.4561 84.1763 98.4563 80.3849 97.9345 77.8108C96.1389 68.9514 89.0386 62.0564 80.1185 60.5098C77.5236 60.06 73.1267 60.2236 70.716 60.8595C66.645 61.9339 63.7508 63.6107 60.6679 66.6813L58.5415 68.7994L57.9103 67.9988C55.3958 64.8083 50.526 61.7639 46.4014 60.8037L45.4375 60.5794V58.9452V57.3112H76.2812H107.125V84.364ZM46.0804 64.0124C52.5119 65.856 57.3259 70.6592 59.3288 77.2311C59.8002 78.7777 59.8324 79.1009 59.8324 82.28C59.8324 85.4591 59.8002 85.7822 59.3288 87.3288C58.3285 90.6109 56.7616 93.2776 54.4804 95.5795C49.0967 101.012 41.2822 102.681 34.134 99.9244C30.0221 98.3387 26.0162 94.6536 23.9651 90.5698C23.7446 90.1308 23.5906 89.7489 23.6229 89.7208C23.6552 89.6929 24.3027 89.632 25.0619 89.5854L26.4422 89.5007L27.265 90.8711C28.6712 93.2128 31.2057 95.5309 33.7793 96.8289C34.2842 97.0835 35.3995 97.5186 36.2578 97.7959C38.351 98.472 42.019 98.6411 44.3525 98.1691C50.4208 96.9414 55.3683 92.1524 56.8188 86.102C57.3265 83.9845 57.3237 80.567 56.8128 78.4245C55.4395 72.6668 50.6444 67.8717 44.8867 66.4984C41.978 65.8048 38.124 66.0277 35.3773 67.0487C32.0776 68.2751 29.0062 70.789 27.265 73.6889L26.4422 75.0592L25.0619 74.9746C24.3027 74.928 23.6552 74.867 23.6229 74.8391C23.5122 74.7431 24.3664 73.1912 25.338 71.7233C27.1192 69.0324 30.2752 66.3479 33.2359 65.0055C37.1787 63.2176 42.0059 62.8446 46.0804 64.0124ZM79.3732 63.5697C86.4788 64.6917 92.3705 69.9851 94.5788 77.2311C95.0502 78.7777 95.0824 79.1009 95.0824 82.28C95.0824 85.4633 95.0508 85.7791 94.5789 87.3104C93.969 89.2898 93.0847 91.2421 92.2082 92.5436L91.5568 93.5106L91.1465 91.7092C90.8054 90.2118 90.7729 89.8139 90.9544 89.3526C92.125 86.3772 92.313 85.5268 92.3955 82.8308C92.4649 80.5586 92.4193 79.9267 92.0841 78.5163C90.6847 72.629 85.9322 67.8765 80.0449 66.4771C78.6283 66.1404 78.0127 66.0967 75.7305 66.1707C73.4761 66.2438 72.8293 66.3345 71.5078 66.7626C67.7502 67.9799 64.7701 70.2153 62.7214 73.3536L61.8381 74.7067L61.1867 73.1787L60.5351 71.6508L61.4963 70.4936C66.1274 64.9182 72.4368 62.4744 79.3732 63.5697ZM42.9035 69.3284C45.3936 69.5689 48.4679 71.1713 50.4307 73.2519C51.8934 74.8024 52.7807 76.239 53.4561 78.151C53.9337 79.5022 53.9746 79.8277 53.9746 82.28C53.9746 84.7021 53.93 85.0678 53.4806 86.3367C52.7526 88.3911 51.7902 89.9105 50.226 91.4747C47.3476 94.3529 43.6956 95.6788 39.6973 95.297C34.7903 94.8282 30.3701 91.3167 28.6543 86.5243C28.1202 85.0324 28.0879 84.7899 28.0879 82.28C28.0879 79.8308 28.1292 79.5004 28.6049 78.1491C29.9501 74.3274 32.9094 71.3244 36.6896 69.9447C38.0846 69.4356 40.3762 69.0616 41.3984 69.176C41.6509 69.2042 42.3282 69.2727 42.9035 69.3284ZM78.1535 69.3284C80.6436 69.5689 83.7179 71.1713 85.6807 73.2519C88.0536 75.7674 89.1457 78.2995 89.2779 81.592C89.3214 82.6778 89.3036 83.8519 89.238 84.2011L89.1189 84.836L88.4932 84.1433C88.1489 83.7623 87.4292 83.211 86.8937 82.918C86.0539 82.4586 85.677 82.3753 84.155 82.3123C82.1113 82.2278 81.2489 82.4292 78.3289 83.6735L76.4292 84.4829L75.6163 83.7675C74.3082 82.616 73.6537 82.3718 71.875 82.3718C70.6897 82.3718 70.1378 82.4592 69.5801 82.7351C67.8044 83.6138 66.2357 86.0358 65.8109 88.555C65.5667 90.0028 65.5913 90.012 64.6168 88.1166C63.5371 86.017 63.1978 84.4187 63.2846 81.8412C63.3458 80.0218 63.4514 79.3511 63.8657 78.1491C65.1736 74.3542 68.153 71.3266 71.9396 69.9447C73.3346 69.4356 75.6262 69.0616 76.6484 69.176C76.9009 69.2042 77.5782 69.2727 78.1535 69.3284ZM24.875 82.28V86.6862H23.4062H21.9375V82.28V77.8737H23.4062H24.875V82.28ZM72.8508 85.6157C73.2274 85.8171 73.1881 85.859 72.204 86.3042L71.1564 86.778L71.7641 88.155C72.1533 89.0371 72.4638 89.5123 72.6283 89.4774C72.7693 89.4475 74.9502 88.5414 77.4746 87.4639C81.6051 85.7011 82.1955 85.4978 83.3737 85.4341C84.9636 85.348 85.8401 85.6968 86.4764 86.669C86.7953 87.1562 87.4151 89.529 88.8468 95.7429C89.9129 100.371 90.7852 104.433 90.7852 104.771C90.7852 105.655 90.1026 106.373 88.9033 106.751C87.0742 107.328 86.224 107.12 85.4977 105.918C85.2043 105.432 85.0049 104.108 84.4297 98.8293L83.7225 92.3378L82.251 92.4656C81.4415 92.5361 80.7411 92.6315 80.6943 92.6778C80.6157 92.7555 81.7213 103.449 81.9168 104.503C81.9938 104.918 81.828 105.087 80.4294 106.018C78.6707 107.188 78.1963 107.297 77.929 106.594C77.8223 106.313 77.75 102.789 77.75 97.8735V89.6237H76.2812H74.8125V96.4382V103.252L74.3994 103.137C72.9417 102.729 71.224 102.599 69.8865 102.795C69.1121 102.908 68.3338 103.056 68.1572 103.125C67.7396 103.286 67.7309 103.592 68.3753 95.3443C68.8793 88.891 68.939 88.4311 69.3904 87.5082C70.2673 85.7159 71.6378 84.9665 72.8508 85.6157ZM64.2781 93.2321C65.3457 94.4535 65.3864 94.6221 65.1118 96.6901L64.9902 97.606L63.5382 96.2311C62.7396 95.4749 61.7384 94.4153 61.3132 93.8767L60.5403 92.8972L61.1904 91.3726L61.8403 89.8479L62.5655 90.9752C62.9643 91.595 63.7348 92.6106 64.2781 93.2321Z" fill="white"/>
</svg>
