<svg width="138" height="137" viewBox="0 0 138 137" fill="none" xmlns="http://www.w3.org/2000/svg">
<rect width="137.383" height="136.607" rx="11.635" fill="#232323"/>
<path d="M12.3956 59.978C13.0331 60.1758 13.8023 60.2857 14.6156 60.2857C17.7147 60.2857 19.649 58.7691 19.649 54.6809V44.1745H16.0882V54.8347C16.0882 56.2634 15.3849 56.9008 14.0881 56.9008C13.4507 56.9008 13.0331 56.7909 12.6814 56.6811L12.3956 59.978ZM32.5679 60H36.4803L30.6997 44.1745H26.4356L20.6769 60H24.3255L25.4025 57.0107H31.4909L32.5679 60ZM30.4139 53.8676H26.4356L28.4357 48.3067L30.4139 53.8676ZM50.5519 60H54.8379L59.6515 44.1745H55.849L52.7279 56.1316L49.5188 44.1745H45.6064L42.4853 56.1316L39.2103 44.1745H35.144L40.1335 60H44.3975L47.4088 49.3838L50.5519 60ZM70.3028 60H74.2152L68.4345 44.1745H64.1704L58.4117 60H62.0604L63.1374 57.0107H69.2258L70.3028 60ZM68.1488 53.8676H64.1704L66.1706 48.3067L68.1488 53.8676ZM75.8913 60H79.4521V53.7797H86.024V60H89.5847V44.1745H86.024V50.4827H79.4521V44.1745H75.8913V60ZM103.144 60H107.056L101.275 44.1745H97.0113L91.2526 60H94.9013L95.9783 57.0107H102.067L103.144 60ZM100.99 53.8676H97.0113L99.0115 48.3067L100.99 53.8676ZM108.732 60H112.293V54.7248L116.733 60H120.997L115.942 54.2633C117.216 53.9116 118.162 53.3841 118.843 52.5488C119.59 51.5817 119.854 50.3728 119.854 49.2299C119.854 45.801 117.129 44.1745 113.282 44.1745H108.732V60ZM113.502 47.8452C115.15 47.8452 116.183 48.4826 116.183 49.6695C116.183 51.1202 115.216 51.8455 113.568 51.8455H112.293V47.8452H113.502ZM13.4507 89H18.6159C23.0998 89 24.6823 86.9559 24.6823 84.3623C24.6823 82.4061 23.8251 81.0433 21.9349 80.4499C23.2976 79.8784 23.957 78.6695 23.957 77.1749C23.957 74.6692 22.1766 73.1745 18.2862 73.1745H13.4507V89ZM18.2423 76.8452C19.671 76.8452 20.2864 77.3067 20.2864 78.3398C20.2864 79.3509 19.7589 79.9883 18.2203 79.9883H16.9235V76.8452H18.2423ZM18.6159 82.6259C20.1765 82.6259 21.0337 83.2193 21.0337 84.3183C21.0337 85.3733 20.4183 86.0987 18.6819 86.0987H16.9235V82.6259H18.6159ZM29.0237 89H32.5844V82.7797H39.1564V89H42.7171V73.1745H39.1564V79.4827H32.5844V73.1745H29.0237V89ZM58.584 89H62.4964L56.7157 73.1745H52.4516L46.6929 89H50.3415L51.4185 86.0107H57.5069L58.584 89ZM56.4299 82.8676H52.4516L54.4518 77.3067L56.4299 82.8676ZM78.8758 89H83.1618L87.9754 73.1745H84.1729L81.0518 85.1316L77.8427 73.1745H73.9303L70.8092 85.1316L67.5342 73.1745H63.4679L68.4573 89H72.7214L75.7327 78.3838L78.8758 89ZM100.935 89H104.847L99.0663 73.1745H94.8022L89.0435 89H92.6921L93.7691 86.0107H99.8576L100.935 89ZM98.7805 82.8676H94.8022L96.8024 77.3067L98.7805 82.8676ZM108.831 89H112.128V79.2629L118.92 89H122.458V73.1745H119.161V83.5051L112.37 73.1745H108.831V89Z" fill="white"/>
</svg>
