<svg width="139" height="137" viewBox="0 0 139 137" fill="none" xmlns="http://www.w3.org/2000/svg">
<rect x="0.964844" y="6.10352e-05" width="137.383" height="136.607" rx="11.635" fill="#7021F9"/>
<path fill-rule="evenodd" clip-rule="evenodd" d="M64.753 22.2672C61.5855 22.8261 58.0549 24.2896 55.2745 26.1964C53.5323 27.3912 50.7193 30.1772 49.4962 31.9194C47.5364 34.711 45.9452 38.497 45.4744 41.4885L45.2454 42.9435H38.2811H31.3166L28.376 54.7356L25.4357 66.5278L25.4407 68.8844C25.4478 72.1788 26.008 74.0607 27.5454 75.9558L28.1566 76.7092V94.1636V111.618H26.0783H24V113.064V114.51H69H114V113.064V111.618H111.922H109.843V103.937V96.2567H108.307H106.771V98.335V100.413H94.2108H81.6506V92.7326V85.0519H94.2108H106.771V89.2989V93.5459H108.307H109.843V85.1439V76.7417L110.504 75.8818C111.315 74.8273 112.081 73.173 112.352 71.8955C112.463 71.3687 112.552 69.9455 112.549 68.7328L112.544 66.5278L109.601 54.7808L106.658 43.0338L99.7061 42.9865L92.7539 42.9393L92.5252 41.4865C92.057 38.5107 90.7413 35.2785 88.8327 32.4147C87.7923 30.8535 84.4475 27.2081 84.0764 27.2309C83.9293 27.2399 82.1919 29.2572 82.1933 29.4171C82.1937 29.4514 82.9467 30.2522 83.8668 31.1965C86.8856 34.2944 88.6417 37.5451 89.5296 41.6784C90.0553 44.1258 89.9861 48.0879 89.3743 50.5541C88.0061 56.0696 84.7735 60.5645 79.9789 63.618L78.9398 64.2798V58.8769V53.4738L79.9928 53.0898C81.9325 52.3826 83.1754 51.061 83.9619 48.8692C84.3837 47.6938 84.4345 47.2891 84.4332 45.1122C84.4314 42.326 84.1466 40.9109 83.1739 38.8579C80.9816 34.2303 76.1292 33.1749 73.0786 36.6621C72.077 37.8072 71.2776 39.4067 70.7836 41.2552C70.3196 42.9901 70.2298 46.479 70.6095 48.0037C71.3127 50.8275 72.9638 52.5816 75.6416 53.3493C75.8165 53.3994 75.8675 54.7938 75.8675 59.5375V65.6609L74.738 65.9587C72.3029 66.6008 71.5281 66.7011 69 66.7011C66.4719 66.7011 65.6971 66.6008 63.262 65.9587L62.1325 65.6609V58.6647V51.6686L63.036 51.5616C64.8743 51.3438 66.403 50.2525 67.2349 48.564C67.6308 47.7605 67.6464 47.5375 67.7011 41.9043L67.7575 36.076H66.2102H64.6627V38.1543V40.2326H63.3976H62.1325V38.1543V36.076H60.5964H59.0602V38.1543V40.2326H57.7952H56.5301V38.1543V36.076H54.9848H53.4392L53.4938 41.9043C53.5453 47.4267 53.5686 47.7767 53.9371 48.5741C54.7046 50.2346 56.749 51.6182 58.4346 51.6182H59.0602V57.9491V64.2798L58.0211 63.618C49.1783 57.9861 45.7003 47.0694 49.7472 37.6497C51.6604 33.1969 55.4537 29.214 59.921 26.9676C62.3512 25.7455 66.1323 24.8734 69 24.8734C72.1724 24.8734 75.8687 25.7996 78.7032 27.305L80.1833 28.0911L80.9328 26.8508C81.3448 26.1686 81.6381 25.5393 81.5841 25.452C81.3936 25.1439 78.0979 23.6157 76.4967 23.0932C75.604 22.8019 74.1069 22.4322 73.17 22.2715C71.0684 21.9113 66.782 21.9091 64.753 22.2672ZM78.2707 37.766C80.0631 38.5149 81.4699 41.7451 81.4699 45.1123C81.4699 48.6003 80.2578 50.3009 77.6304 50.499C76.3196 50.5976 74.917 49.9723 74.2578 48.9952C72.6537 46.6174 73.2342 41.1057 75.3416 38.7057C76.3066 37.6064 77.2016 37.3192 78.2707 37.766ZM64.6627 45.0457C64.6627 48.2206 64.1814 48.6363 60.506 48.6363C56.9733 48.6363 56.5301 48.2345 56.5301 45.0308V43.1242H60.5964H64.6627V45.0457ZM44.773 46.5128C44.7674 46.786 44.2983 51.1573 43.7302 56.2266L42.6974 65.4435L35.7886 65.4908C31.9885 65.5168 28.8773 65.4762 28.8745 65.4005C28.8717 65.3247 29.9487 60.9323 31.2674 55.6393L33.6652 46.0158H39.2243H44.7831L44.773 46.5128ZM106.709 55.6844C108.03 60.9525 109.112 65.3238 109.115 65.3983C109.118 65.4728 105.989 65.5338 102.163 65.5338C96.5013 65.5338 95.2048 65.4892 95.2048 65.294C95.2048 65.1621 94.7575 60.9746 94.2108 55.9882C93.6642 51.0019 93.2169 46.7172 93.2169 46.4663V46.0105L98.7629 46.0584L104.309 46.1061L106.709 55.6844ZM49.5927 59.8893C51.4923 62.5745 55.127 65.6799 58.0211 67.0906L59.0602 67.5972V69.1698C59.0602 73.1072 56.9821 75.8132 53.3886 76.5549C51.9376 76.8543 50.6301 76.6561 49.1395 75.9102C46.7386 74.7091 45.469 72.7284 45.3553 70.0067L45.2893 68.4254H48.7411H52.1928V66.9796V65.5338H48.9172H45.6416L45.7346 65.0368C45.7858 64.7636 46.0567 62.4093 46.3368 59.8053L46.8459 55.0709L47.7889 56.8718C48.3074 57.8622 49.1192 59.2201 49.5927 59.8893ZM91.686 60.4736L92.2332 65.5338H87.4733H82.7134L84.075 64.4387C86.614 62.3961 88.9408 59.5002 90.3468 56.6332C90.6759 55.9622 90.9886 55.4134 91.0419 55.4134C91.095 55.4135 91.3849 57.6906 91.686 60.4736ZM42.206 69.826C42.0558 71.9558 41.52 73.1674 40.1008 74.5864C38.5684 76.119 37.3852 76.6196 35.2952 76.6196C33.2051 76.6196 32.0219 76.119 30.4896 74.5864C29.0704 73.1674 28.5345 71.9558 28.3843 69.826L28.2857 68.4254H35.2952H42.3047L42.206 69.826ZM92.5843 70.0568C92.5843 71.4335 92.5211 71.7263 91.9914 72.8011C90.6445 75.5347 87.6408 77.1057 84.7719 76.5771C81.2727 75.9323 78.9398 73.1274 78.9398 69.565V68.4211L85.762 68.4684L92.5843 68.5158V70.0568ZM109.663 69.2298C109.663 72.8869 107.273 75.8925 103.816 76.5843C101.811 76.9855 99.3871 76.1936 97.8188 74.6253C96.493 73.2995 95.9655 72.0147 95.6626 69.3742L95.5538 68.4254H102.608H109.663V69.2298ZM64.0301 69.2746C65.0311 69.5256 66.0685 69.5918 69 69.5918C72.5843 69.5918 73.5224 69.4862 75.5756 68.8523C75.894 68.754 75.9107 68.8396 75.8313 70.1676C75.6398 73.3756 73.423 75.8878 70.1958 76.5547C68.745 76.8543 67.4376 76.6561 65.9467 75.9102C63.624 74.7484 62.3163 72.7629 62.1661 70.1712C62.0892 68.8403 62.1061 68.754 62.4244 68.8523C62.6118 68.9101 63.3343 69.1002 64.0301 69.2746ZM46.0923 77.6231C47.2731 78.5144 48.7294 79.199 50.012 79.4656C51.4531 79.765 54.2275 79.5899 55.5361 79.117C57.0284 78.5775 58.9325 77.2365 59.8205 76.0994L60.5619 75.1503L61.2558 76.0282C62.548 77.6631 64.7792 79.0416 66.8192 79.4656C68.2603 79.765 71.0348 79.5899 72.3434 79.117C73.8436 78.5746 75.7411 77.2347 76.6415 76.0819L77.3966 75.115L77.8426 75.7009C78.9786 77.1935 80.7358 78.4879 82.4913 79.1251C83.7752 79.5914 86.5598 79.7623 87.9998 79.4632C90.0318 79.0414 92.4036 77.5626 93.6056 75.9681L94.1877 75.1958L95.6451 76.6517C97.1928 78.1978 98.3221 78.869 100.198 79.3577C101.988 79.8238 104.72 79.6637 106.455 78.9912C106.741 78.8804 106.771 79.0165 106.771 80.4241V81.9796H69H31.2289V80.4241C31.2289 79.0165 31.2589 78.8804 31.5452 78.9912C33.2852 79.6658 36.013 79.8236 37.8159 79.3541C39.6484 78.8766 41.2514 77.9018 42.5711 76.462L43.7633 75.1611L44.4528 76.0337C44.8321 76.5135 45.5698 77.2288 46.0923 77.6231ZM56.3494 92.7326V100.413H43.7892H31.2289V92.7326V85.0519H43.7892H56.3494V92.7326ZM78.759 98.335V111.618H69H59.241V98.335V85.0519H69H78.759V98.335ZM35.5663 89.57V91.0158H37.1024H38.6386V89.57V88.1242H37.1024H35.5663V89.57ZM41.1687 89.57V91.0158H42.7048H44.241V89.57V88.1242H42.7048H41.1687V89.57ZM46.7711 89.57V91.0158H48.3072H49.8434V89.57V88.1242H48.3072H46.7711V89.57ZM64.6627 97.7025V100.594H66.1988H67.7349V97.7025V94.8109H66.1988H64.6627V97.7025ZM70.2651 97.7025V100.594H71.8012H73.3373V97.7025V94.8109H71.8012H70.2651V97.7025ZM56.3494 107.462V111.618H43.7892H31.2289V107.462V103.305H43.7892H56.3494V107.462ZM106.771 107.462V111.618H94.2108H81.6506V107.462V103.305H94.2108H106.771V107.462Z" fill="white"/>
</svg>
