<svg width="138" height="137" viewBox="0 0 138 137" fill="none" xmlns="http://www.w3.org/2000/svg">
<rect y="0.259949" width="137.383" height="136.607" rx="11.635" fill="#7021F9"/>
<path fill-rule="evenodd" clip-rule="evenodd" d="M24.4206 26.3301C22.9889 26.9869 22.0597 28.3969 22.0529 29.924C22.0485 30.8969 21.7929 30.6016 29.6597 38.7124L33.6691 42.846L33.2303 43.6019C32.101 45.5473 31.6532 48.3348 32.1184 50.5229C33.043 54.8709 37.0301 58.3125 41.1535 58.3218C41.9923 58.3237 42.318 58.5048 41.9222 58.7494C41.6605 58.9112 40.9095 60.6468 40.662 61.6617C40.3665 62.8738 40.3644 65.539 40.6581 66.576C41.7907 70.5734 45.4816 73.6168 49.4351 73.8127C50.026 73.842 50.4891 73.9066 50.464 73.9564C50.4389 74.0061 50.2082 74.4453 49.9516 74.9326C49.0003 76.7387 48.621 79.3098 48.994 81.4249L49.1178 82.1276L43.492 87.5473L37.8665 92.967L38.7717 94.0079C39.2696 94.5804 39.7391 95.027 39.815 95.0003C39.8911 94.9736 41.7155 93.2474 43.8692 91.1643C46.023 89.0813 48.3526 86.8438 49.0461 86.1922L50.3071 85.0076L51.6438 86.3661L52.9807 87.7248L52.1234 88.6154C45.2439 95.762 35.3016 106.029 35.2275 106.064C35.1746 106.089 34.3948 105.369 33.4947 104.465L31.8577 102.821L34.6884 100.039L37.519 97.2564L36.5171 96.2442L35.5154 95.232L30.7631 99.835C28.1493 102.367 25.1084 105.318 24.0053 106.393L22 108.348L22.0852 109.673C22.2368 112.036 23.7429 114.235 25.9477 115.312C26.9663 115.809 28.6647 116.086 29.4665 115.885C29.7189 115.821 35.0966 110.388 42.8561 102.356C55.7101 89.0499 55.8287 88.9332 56.3721 89.072C56.6735 89.1491 57.3651 89.263 57.9089 89.3251L58.8977 89.4381L58.3259 90.6139C57.5803 92.147 57.3074 93.3693 57.3156 95.1385C57.3279 97.813 58.2839 100.052 60.2385 101.983C64.1333 105.833 70.0653 105.831 73.9817 101.979C75.9428 100.051 76.8942 97.8139 76.8942 95.132C76.8942 93.3089 76.6008 91.9796 75.8841 90.5549L75.3237 89.4413L75.9596 89.3492C76.3094 89.2984 76.9908 89.2115 77.4739 89.1556L78.3523 89.0541L82.1209 92.9691C84.1936 95.1224 87.2238 98.2587 88.8546 99.9384L91.8196 102.993L92.7718 102.053C93.2953 101.535 93.7237 101.051 93.7237 100.977C93.7237 100.902 90.8762 97.8984 87.3958 94.3016L81.0679 87.762L81.851 87.0927C82.2818 86.7245 82.8975 86.1061 83.2195 85.7186L83.8049 85.0139L92.9365 93.8371C97.959 98.6899 102.088 102.706 102.113 102.761C102.138 102.817 101.411 103.606 100.499 104.514L98.8402 106.166L97.5822 104.819C96.8902 104.078 96.2615 103.472 96.1847 103.472C95.9463 103.472 94.2507 105.074 94.2507 105.299C94.2507 105.498 100.189 111.779 103.133 114.694L104.443 115.991L105.745 115.907C108.084 115.757 110.288 114.241 111.361 112.046C111.858 111.027 112.135 109.329 111.934 108.527C111.87 108.275 106.464 102.926 98.4676 95.2044L85.1073 82.3033L85.242 81.3371C85.5686 78.9943 85.2124 76.6909 84.2453 74.8913C83.6856 73.8497 83.7337 73.7861 85.0862 73.7786C87.8374 73.7635 91.4171 71.3005 92.7948 68.4752C93.5746 66.8758 93.7799 65.997 93.7915 64.209C93.8038 62.3219 93.5319 61.1059 92.7403 59.5097L92.1523 58.3239L93.0699 58.3218C97.1884 58.3125 101.176 54.8686 102.1 50.5229C102.574 48.2944 102.104 45.4549 100.948 43.5622L100.462 42.7664L106.227 36.7988L111.992 30.831L111.989 29.9527C111.982 27.7808 110.214 26.0134 108.039 26.0039L107.158 26L100.554 32.3977L93.9493 38.7953L92.9142 38.7059C90.0557 38.4588 86.5313 40.0648 84.7475 42.4274L84.0215 43.389L83.5445 42.7315C82.7652 41.6574 81.1417 40.2842 79.9727 39.7101C78.8131 39.1407 76.8735 38.6566 75.7316 38.6515C72.6909 38.6381 68.9246 40.55 67.5222 42.819L67.1291 43.4553L66.7677 42.9518C66.569 42.6749 66.1372 42.1432 65.808 41.7704L65.2097 41.0923L64.6069 41.6711C64.2756 41.9893 63.8494 42.4648 63.6601 42.7276L63.3157 43.2054L64.014 44.0887C66.2193 46.8786 66.0264 50.8053 63.5611 53.3058C60.1302 56.7857 54.4393 55.8283 52.2615 51.4046C49.944 46.6971 53.7431 41.1069 58.985 41.5114C59.6853 41.5654 60.4275 41.6618 60.6348 41.7257C60.9656 41.8278 61.0574 41.7194 61.3875 40.837C61.988 39.2322 61.971 39.1548 60.9607 38.8876C59.7735 38.5736 57.3119 38.5886 56.0492 38.9174C55.4811 39.0654 54.5356 39.4399 53.948 39.7498C52.9211 40.291 50.7591 42.2229 50.3635 42.9525C50.1778 43.295 50.1655 43.2929 49.8741 42.8646C49.7097 42.6231 49.1212 41.9761 48.5664 41.4266C46.7125 39.5906 43.7961 38.5016 41.3228 38.7217L40.1307 38.8278L33.5084 32.4138L26.886 26L26.0046 26.0039C25.52 26.006 24.8071 26.1528 24.4206 26.3301ZM28.3327 31.4468C28.3587 31.5058 28.1848 31.7373 27.9462 31.9617L27.5123 32.3692L26.2016 30.9853L24.8911 29.6013L25.254 29.2096L25.6169 28.818L26.9512 30.0786C27.685 30.7722 28.3067 31.3877 28.3327 31.4468ZM107.915 30.9022C107.222 31.636 106.606 32.2577 106.547 32.2837C106.488 32.3097 106.256 32.1357 106.032 31.8972L105.625 31.4633L107.008 30.1526L108.392 28.842L108.784 29.205L109.176 29.5679L107.915 30.9022ZM33.8204 36.696L37.0018 39.7505L36.2742 40.1844L35.5463 40.6183L35.0174 40.1166C34.7265 39.8406 33.3777 38.4461 32.0202 37.0181L29.552 34.4213L29.9626 33.9842C30.1885 33.7439 30.433 33.5685 30.5061 33.5945C30.5792 33.6205 32.0706 35.0163 33.8204 36.696ZM104.083 33.9877L104.491 34.4213L102.023 37.0181C100.665 38.4461 99.3163 39.8406 99.0254 40.1166L98.4964 40.6183L97.7697 40.1849L97.0429 39.7515L100.258 36.656C102.027 34.9534 103.519 33.5589 103.575 33.5571C103.63 33.5554 103.859 33.7491 104.083 33.9877ZM44.2223 41.9873C45.2584 42.3778 46.6289 43.3729 47.2476 44.1839C47.5069 44.5241 47.9317 45.2556 48.1913 45.8098C48.6082 46.6994 48.6625 47.0228 48.654 48.574C48.6458 50.0862 48.5801 50.4706 48.1829 51.3356C46.537 54.919 42.3507 56.502 38.8653 54.8587C36.0428 53.5282 34.3453 50.4486 34.8512 47.5766C35.3856 44.5421 37.5833 42.2435 40.5256 41.6413C41.5154 41.4387 43.1797 41.5945 44.2223 41.9873ZM76.7034 41.6358C80.9574 42.4298 83.4985 46.6692 82.1781 50.7699C81.6441 52.4285 80.147 54.0786 78.4602 54.8679C75.0126 56.4813 70.9143 54.972 69.2401 51.4726C68.5446 50.0191 68.3937 47.9822 68.8732 46.5204C69.7087 43.973 71.8617 42.063 74.377 41.6379C75.5452 41.4406 75.6564 41.4405 76.7034 41.6358ZM93.5999 41.6432C95.0392 41.9092 96.0349 42.4037 97.11 43.3862C100.086 46.106 100.234 50.5089 97.4457 53.3713C94.7467 56.1422 90.5263 56.2476 87.7111 53.6144C86.0818 52.0903 85.3763 50.3343 85.5041 48.1213C85.7111 44.542 88.5679 41.7625 92.3299 41.48C92.4814 41.4686 93.0528 41.542 93.5999 41.6432ZM43.1298 46.993V48.4862H44.5352H45.9406V46.993V45.4997H44.5352H43.1298V46.993ZM59.9945 46.993V48.4862H61.3998H62.8052V46.993V45.4997H61.3998H59.9945V46.993ZM77.0348 46.993V48.4862H78.4401H79.8455V46.993V45.4997H78.4401H77.0348V46.993ZM93.8994 46.993V48.4862H95.3048H96.7102V46.993V45.4997H95.3048H93.8994V46.993ZM67.2606 53.8442C67.3306 54.0267 67.2487 54.1077 66.9943 54.1077C66.6878 54.1077 66.6632 54.0642 66.8457 53.8442C66.966 53.6993 67.0859 53.5807 67.1119 53.5807C67.138 53.5807 67.205 53.6993 67.2606 53.8442ZM50.4203 53.9321C50.48 54.0287 50.4009 54.1077 50.2446 54.1077C50.0882 54.1077 50.0092 54.0287 50.0689 53.9321C50.1286 53.8354 50.2077 53.7564 50.2446 53.7564C50.2815 53.7564 50.3605 53.8354 50.4203 53.9321ZM84.1495 53.9321C84.2093 54.0287 84.1302 54.1077 83.9739 54.1077C83.8175 54.1077 83.7385 54.0287 83.7982 53.9321C83.8579 53.8354 83.937 53.7564 83.9739 53.7564C84.0107 53.7564 84.0898 53.8354 84.1495 53.9321ZM52.287 57.36C54.0374 57.854 55.682 59.3098 56.5518 61.1347C57.0477 62.1755 57.0958 62.432 57.0958 64.0333C57.0958 65.6377 57.0484 65.8889 56.549 66.9319C55.3974 69.3362 53.1776 70.8294 50.5852 70.9434C48.8612 71.0193 47.7258 70.7162 46.375 69.8196C42.6406 67.3409 42.1394 62.2778 45.3143 59.103C47.2248 57.1926 49.5948 56.6 52.287 57.36ZM69.2403 57.3717C71.1153 57.8858 73.2042 59.9775 73.8001 61.9382C74.1207 62.9933 74.1339 65.0127 73.8263 65.9657C73.1829 67.959 71.8865 69.4537 70.0431 70.327C68.9649 70.8376 68.7182 70.8845 67.1092 70.8845C65.5101 70.8845 65.2501 70.8359 64.2106 70.3422C62.3523 69.46 61.0311 67.9455 60.3922 65.9657C60.0881 65.0235 60.1035 62.9979 60.4229 61.9665C60.7813 60.8084 61.8237 59.2971 62.7541 58.5867C64.7789 57.0406 66.7113 56.6787 69.2403 57.3717ZM86.4602 57.4763C90.8137 59.0779 92.3905 64.669 89.5146 68.3074C89.146 68.7736 88.4006 69.4498 87.8583 69.8098C86.4928 70.7161 85.3622 71.0195 83.6332 70.9434C81.0355 70.829 78.7982 69.3256 77.664 66.9324C77.1714 65.8931 77.1226 65.6314 77.1226 64.0333C77.1226 62.4352 77.1714 62.1734 77.664 61.1341C79.2556 57.7758 83.0193 56.2107 86.4602 57.4763ZM58.9067 58.5127C58.8721 58.6166 58.7686 58.7016 58.6769 58.7016C58.5852 58.7016 58.4817 58.6166 58.4471 58.5127C58.4125 58.4089 58.5158 58.3239 58.6769 58.3239C58.838 58.3239 58.9413 58.4089 58.9067 58.5127ZM75.7713 58.5127C75.7367 58.6166 75.6332 58.7016 75.5415 58.7016C75.4498 58.7016 75.3464 58.6166 75.3118 58.5127C75.2771 58.4089 75.3804 58.3239 75.5415 58.3239C75.7026 58.3239 75.8059 58.4089 75.7713 58.5127ZM51.5621 62.4522V63.9454H52.9675H54.3729V62.4522V60.959H52.9675H51.5621V62.4522ZM68.6024 62.4522V63.9454H70.0078H71.4132V62.4522V60.959H70.0078H68.6024V62.4522ZM85.4671 62.4522V63.9454H86.8725H88.2779V62.4522V60.959H86.8725H85.4671V62.4522ZM58.9404 69.5774C58.9404 69.6684 58.7726 69.7427 58.5676 69.7427C58.2572 69.7427 58.231 69.6987 58.4118 69.4811C58.6312 69.2167 58.9404 69.2731 58.9404 69.5774ZM75.7307 69.7142C75.3557 69.7875 75.2032 69.6545 75.3639 69.3945C75.4509 69.2539 75.5626 69.2629 75.7603 69.4266C76.0081 69.6322 76.0053 69.6608 75.7307 69.7142ZM61.576 73.1827C63.0394 73.8763 64.2932 75.13 64.9867 76.5934C65.4793 77.6327 65.5282 77.8944 65.5282 79.4925C65.5282 81.1056 65.482 81.3466 64.9644 82.4394C62.8572 86.8879 57.2097 87.8595 53.7059 84.3766C51.1936 81.8792 50.9924 78.0683 53.2187 75.1525C53.9202 74.2339 54.8658 73.5539 56.2465 72.9749C57.1211 72.6082 57.5036 72.5522 58.8526 72.5933C60.1947 72.6341 60.6063 72.7231 61.576 73.1827ZM77.972 72.9833C79.4547 73.5929 80.3332 74.2594 81.1958 75.429C82.1182 76.6802 82.5365 78.0209 82.5277 79.6984C82.5221 80.7693 82.4323 81.1361 81.9299 82.1426C80.8477 84.31 78.6197 86.0885 76.5534 86.4343C74.5671 86.7666 72.2575 86.009 70.7446 84.5287C69.172 82.99 68.5236 81.329 68.6298 79.1103C68.7688 76.2076 70.5596 73.8958 73.5116 72.8082C74.588 72.4118 76.7925 72.4983 77.972 72.9833ZM67.3743 74.0447C67.2549 74.1886 67.0727 74.254 66.9692 74.19C66.8554 74.1197 66.9153 74.0214 67.1208 73.9409C67.6057 73.751 67.615 73.7549 67.3743 74.0447ZM59.9945 78.0871V79.5804H61.3998H62.8052V78.0871V76.5939H61.3998H59.9945V78.0871ZM77.0348 78.0871V79.5804H78.4401H79.8455V78.0871V76.5939H78.4401H77.0348V78.0871ZM67.3727 85.0366C67.3727 85.1276 67.2541 85.2019 67.1092 85.2019C66.8376 85.2019 66.7602 84.9946 66.958 84.7968C67.0983 84.6564 67.3727 84.8151 67.3727 85.0366ZM70.0108 88.6557C74.4337 90.7476 75.4653 96.4564 72.0395 99.8821C69.2324 102.689 64.986 102.689 62.1789 99.8821C58.4434 96.1465 60.0354 89.9563 65.1673 88.2625C65.5954 88.1211 66.4763 88.0452 67.3757 88.0721C68.6237 88.1095 69.0611 88.2065 70.0108 88.6557ZM68.6024 93.5464V95.0396H70.0078H71.4132V93.5464V92.0532H70.0078H68.6024V93.5464ZM31.5236 106.534L33.1737 108.191L30.8378 110.663C29.5529 112.022 28.3792 113.134 28.2296 113.134C27.1796 113.134 25.3771 111.533 24.9963 110.262L24.7888 109.569L27.2398 107.23C28.5879 105.944 29.7319 104.888 29.7822 104.885C29.8324 104.88 30.6159 105.623 31.5236 106.534ZM106.803 107.23L109.254 109.569L109.046 110.262C108.666 111.533 106.863 113.134 105.813 113.134C105.664 113.134 104.49 112.022 103.205 110.663L100.869 108.191L102.519 106.534C103.427 105.623 104.21 104.88 104.261 104.885C104.311 104.888 105.455 105.944 106.803 107.23Z" fill="white"/>
</svg>
